<mxfile host="app.diagrams.net" modified="2024-04-06T17:11:26.500Z" agent="Mozilla/5.0 (X11; Ubuntu; Linux x86_64; rv:124.0) Gecko/20100101 Firefox/124.0" etag="kwbNKZzCuyAAGMUnT-9p" version="24.2.2" type="github">
  <diagram id="R2lEEEUBdFMjLlhIrx00" name="Page-1">
    <mxGraphModel dx="1593" dy="855" grid="1" gridSize="10" guides="1" tooltips="1" connect="1" arrows="1" fold="1" page="1" pageScale="1" pageWidth="1169" pageHeight="827" math="0" shadow="0" extFonts="Permanent Marker^https://fonts.googleapis.com/css?family=Permanent+Marker">
      <root>
        <mxCell id="0" />
        <mxCell id="1" parent="0" />
        <mxCell id="Ad2AzPNfYspedzS9szeo-1" value="" style="group" vertex="1" connectable="0" parent="1">
          <mxGeometry y="590" width="440" height="210" as="geometry" />
        </mxCell>
        <mxCell id="Ad2AzPNfYspedzS9szeo-2" value="Proveedor" style="whiteSpace=wrap;html=1;align=center;" vertex="1" parent="Ad2AzPNfYspedzS9szeo-1">
          <mxGeometry x="170" y="70" width="100" height="40" as="geometry" />
        </mxCell>
        <mxCell id="Ad2AzPNfYspedzS9szeo-3" value="cif" style="ellipse;whiteSpace=wrap;html=1;align=center;fontStyle=4" vertex="1" parent="Ad2AzPNfYspedzS9szeo-1">
          <mxGeometry x="19" y="60" width="100" height="40" as="geometry" />
        </mxCell>
        <mxCell id="Ad2AzPNfYspedzS9szeo-5" value="direccion" style="ellipse;whiteSpace=wrap;html=1;align=center;" vertex="1" parent="Ad2AzPNfYspedzS9szeo-1">
          <mxGeometry x="245" y="-20" width="100" height="40" as="geometry" />
        </mxCell>
        <mxCell id="Ad2AzPNfYspedzS9szeo-6" value="provincia" style="ellipse;whiteSpace=wrap;html=1;align=center;" vertex="1" parent="Ad2AzPNfYspedzS9szeo-1">
          <mxGeometry x="324" y="40" width="100" height="40" as="geometry" />
        </mxCell>
        <mxCell id="Ad2AzPNfYspedzS9szeo-7" value="localidad" style="ellipse;whiteSpace=wrap;html=1;align=center;" vertex="1" parent="Ad2AzPNfYspedzS9szeo-1">
          <mxGeometry x="319" y="100" width="100" height="40" as="geometry" />
        </mxCell>
        <mxCell id="Ad2AzPNfYspedzS9szeo-8" value="codigo_postal" style="ellipse;whiteSpace=wrap;html=1;align=center;" vertex="1" parent="Ad2AzPNfYspedzS9szeo-1">
          <mxGeometry x="272" y="143" width="100" height="40" as="geometry" />
        </mxCell>
        <mxCell id="Ad2AzPNfYspedzS9szeo-9" value="email" style="ellipse;whiteSpace=wrap;html=1;align=center;" vertex="1" parent="Ad2AzPNfYspedzS9szeo-1">
          <mxGeometry x="170" y="163" width="100" height="40" as="geometry" />
        </mxCell>
        <mxCell id="Ad2AzPNfYspedzS9szeo-10" value="telefono" style="ellipse;whiteSpace=wrap;html=1;align=center;" vertex="1" parent="Ad2AzPNfYspedzS9szeo-1">
          <mxGeometry x="60" y="140" width="100" height="40" as="geometry" />
        </mxCell>
        <mxCell id="Ad2AzPNfYspedzS9szeo-12" value="" style="endArrow=none;html=1;rounded=0;exitX=1;exitY=0.5;exitDx=0;exitDy=0;entryX=0;entryY=0.25;entryDx=0;entryDy=0;" edge="1" parent="Ad2AzPNfYspedzS9szeo-1" source="Ad2AzPNfYspedzS9szeo-3" target="Ad2AzPNfYspedzS9szeo-2">
          <mxGeometry relative="1" as="geometry">
            <mxPoint x="470" y="110" as="sourcePoint" />
            <mxPoint x="630" y="110" as="targetPoint" />
          </mxGeometry>
        </mxCell>
        <mxCell id="Ad2AzPNfYspedzS9szeo-13" value="" style="endArrow=none;html=1;rounded=0;exitX=0.75;exitY=0;exitDx=0;exitDy=0;entryX=0;entryY=1;entryDx=0;entryDy=0;" edge="1" parent="Ad2AzPNfYspedzS9szeo-1" source="Ad2AzPNfYspedzS9szeo-2" target="Ad2AzPNfYspedzS9szeo-5">
          <mxGeometry relative="1" as="geometry">
            <mxPoint x="470" y="110" as="sourcePoint" />
            <mxPoint x="630" y="110" as="targetPoint" />
          </mxGeometry>
        </mxCell>
        <mxCell id="Ad2AzPNfYspedzS9szeo-14" value="" style="endArrow=none;html=1;rounded=0;exitX=1;exitY=0.25;exitDx=0;exitDy=0;entryX=0;entryY=0.5;entryDx=0;entryDy=0;" edge="1" parent="Ad2AzPNfYspedzS9szeo-1" source="Ad2AzPNfYspedzS9szeo-2" target="Ad2AzPNfYspedzS9szeo-6">
          <mxGeometry relative="1" as="geometry">
            <mxPoint x="470" y="110" as="sourcePoint" />
            <mxPoint x="630" y="110" as="targetPoint" />
          </mxGeometry>
        </mxCell>
        <mxCell id="Ad2AzPNfYspedzS9szeo-15" value="" style="endArrow=none;html=1;rounded=0;exitX=1;exitY=0;exitDx=0;exitDy=0;entryX=0.25;entryY=1;entryDx=0;entryDy=0;" edge="1" parent="Ad2AzPNfYspedzS9szeo-1" source="Ad2AzPNfYspedzS9szeo-10" target="Ad2AzPNfYspedzS9szeo-2">
          <mxGeometry relative="1" as="geometry">
            <mxPoint x="470" y="110" as="sourcePoint" />
            <mxPoint x="630" y="110" as="targetPoint" />
          </mxGeometry>
        </mxCell>
        <mxCell id="Ad2AzPNfYspedzS9szeo-16" value="" style="endArrow=none;html=1;rounded=0;entryX=0;entryY=0.5;entryDx=0;entryDy=0;exitX=1;exitY=0.75;exitDx=0;exitDy=0;" edge="1" parent="Ad2AzPNfYspedzS9szeo-1" source="Ad2AzPNfYspedzS9szeo-2" target="Ad2AzPNfYspedzS9szeo-7">
          <mxGeometry relative="1" as="geometry">
            <mxPoint x="270" y="140" as="sourcePoint" />
            <mxPoint x="630" y="110" as="targetPoint" />
          </mxGeometry>
        </mxCell>
        <mxCell id="Ad2AzPNfYspedzS9szeo-17" value="" style="endArrow=none;html=1;rounded=0;exitX=0.75;exitY=1;exitDx=0;exitDy=0;entryX=0;entryY=0;entryDx=0;entryDy=0;" edge="1" parent="Ad2AzPNfYspedzS9szeo-1" source="Ad2AzPNfYspedzS9szeo-2" target="Ad2AzPNfYspedzS9szeo-8">
          <mxGeometry relative="1" as="geometry">
            <mxPoint x="470" y="110" as="sourcePoint" />
            <mxPoint x="630" y="110" as="targetPoint" />
          </mxGeometry>
        </mxCell>
        <mxCell id="Ad2AzPNfYspedzS9szeo-18" value="" style="endArrow=none;html=1;rounded=0;exitX=0.5;exitY=0;exitDx=0;exitDy=0;entryX=0.5;entryY=1;entryDx=0;entryDy=0;" edge="1" parent="Ad2AzPNfYspedzS9szeo-1" source="Ad2AzPNfYspedzS9szeo-9" target="Ad2AzPNfYspedzS9szeo-2">
          <mxGeometry relative="1" as="geometry">
            <mxPoint x="470" y="110" as="sourcePoint" />
            <mxPoint x="630" y="110" as="targetPoint" />
          </mxGeometry>
        </mxCell>
        <mxCell id="Ad2AzPNfYspedzS9szeo-19" style="edgeStyle=orthogonalEdgeStyle;rounded=0;orthogonalLoop=1;jettySize=auto;html=1;exitX=0.5;exitY=1;exitDx=0;exitDy=0;" edge="1" parent="Ad2AzPNfYspedzS9szeo-1" source="Ad2AzPNfYspedzS9szeo-8" target="Ad2AzPNfYspedzS9szeo-8">
          <mxGeometry relative="1" as="geometry" />
        </mxCell>
        <mxCell id="Ad2AzPNfYspedzS9szeo-20" value="" style="group" vertex="1" connectable="0" parent="1">
          <mxGeometry x="660" y="40" width="440" height="250" as="geometry" />
        </mxCell>
        <mxCell id="Ad2AzPNfYspedzS9szeo-21" value="&lt;div&gt;Usuario&lt;/div&gt;" style="whiteSpace=wrap;html=1;align=center;" vertex="1" parent="Ad2AzPNfYspedzS9szeo-20">
          <mxGeometry x="170" y="90" width="100" height="40" as="geometry" />
        </mxCell>
        <mxCell id="Ad2AzPNfYspedzS9szeo-22" value="&lt;div&gt;nombre&lt;/div&gt;" style="ellipse;whiteSpace=wrap;html=1;align=center;" vertex="1" parent="Ad2AzPNfYspedzS9szeo-20">
          <mxGeometry x="70" width="100" height="40" as="geometry" />
        </mxCell>
        <mxCell id="Ad2AzPNfYspedzS9szeo-23" value="dni" style="ellipse;whiteSpace=wrap;html=1;align=center;fontStyle=4" vertex="1" parent="Ad2AzPNfYspedzS9szeo-20">
          <mxGeometry x="39" y="80" width="70" height="40" as="geometry" />
        </mxCell>
        <mxCell id="Ad2AzPNfYspedzS9szeo-25" value="apellido2" style="ellipse;whiteSpace=wrap;html=1;align=center;" vertex="1" parent="Ad2AzPNfYspedzS9szeo-20">
          <mxGeometry x="260" y="30" width="100" height="40" as="geometry" />
        </mxCell>
        <mxCell id="Ad2AzPNfYspedzS9szeo-26" value="direccion" style="ellipse;whiteSpace=wrap;html=1;align=center;" vertex="1" parent="Ad2AzPNfYspedzS9szeo-20">
          <mxGeometry x="324" y="70" width="100" height="40" as="geometry" />
        </mxCell>
        <mxCell id="Ad2AzPNfYspedzS9szeo-27" value="provincia" style="ellipse;whiteSpace=wrap;html=1;align=center;" vertex="1" parent="Ad2AzPNfYspedzS9szeo-20">
          <mxGeometry x="324" y="120" width="100" height="40" as="geometry" />
        </mxCell>
        <mxCell id="Ad2AzPNfYspedzS9szeo-28" value="localidad" style="ellipse;whiteSpace=wrap;html=1;align=center;" vertex="1" parent="Ad2AzPNfYspedzS9szeo-20">
          <mxGeometry x="300" y="170" width="100" height="40" as="geometry" />
        </mxCell>
        <mxCell id="Ad2AzPNfYspedzS9szeo-29" value="codigo_postal" style="ellipse;whiteSpace=wrap;html=1;align=center;" vertex="1" parent="Ad2AzPNfYspedzS9szeo-20">
          <mxGeometry x="230" y="210" width="100" height="40" as="geometry" />
        </mxCell>
        <mxCell id="Ad2AzPNfYspedzS9szeo-30" value="email" style="ellipse;whiteSpace=wrap;html=1;align=center;" vertex="1" parent="Ad2AzPNfYspedzS9szeo-20">
          <mxGeometry x="152" y="210" width="60" height="40" as="geometry" />
        </mxCell>
        <mxCell id="Ad2AzPNfYspedzS9szeo-31" value="telefono" style="ellipse;whiteSpace=wrap;html=1;align=center;" vertex="1" parent="Ad2AzPNfYspedzS9szeo-20">
          <mxGeometry x="39" y="140" width="80" height="40" as="geometry" />
        </mxCell>
        <mxCell id="Ad2AzPNfYspedzS9szeo-33" value="" style="endArrow=none;html=1;rounded=0;exitX=1;exitY=0.5;exitDx=0;exitDy=0;entryX=0;entryY=0.25;entryDx=0;entryDy=0;" edge="1" parent="Ad2AzPNfYspedzS9szeo-20" source="Ad2AzPNfYspedzS9szeo-23" target="Ad2AzPNfYspedzS9szeo-21">
          <mxGeometry relative="1" as="geometry">
            <mxPoint x="470" y="140" as="sourcePoint" />
            <mxPoint x="630" y="140" as="targetPoint" />
          </mxGeometry>
        </mxCell>
        <mxCell id="Ad2AzPNfYspedzS9szeo-34" value="" style="endArrow=none;html=1;rounded=0;exitX=1;exitY=1;exitDx=0;exitDy=0;entryX=0.25;entryY=0;entryDx=0;entryDy=0;" edge="1" parent="Ad2AzPNfYspedzS9szeo-20" source="Ad2AzPNfYspedzS9szeo-22" target="Ad2AzPNfYspedzS9szeo-21">
          <mxGeometry relative="1" as="geometry">
            <mxPoint x="470" y="140" as="sourcePoint" />
            <mxPoint x="630" y="140" as="targetPoint" />
          </mxGeometry>
        </mxCell>
        <mxCell id="Ad2AzPNfYspedzS9szeo-35" value="" style="endArrow=none;html=1;rounded=0;exitX=0.75;exitY=0;exitDx=0;exitDy=0;entryX=0;entryY=1;entryDx=0;entryDy=0;" edge="1" parent="Ad2AzPNfYspedzS9szeo-20" source="Ad2AzPNfYspedzS9szeo-21" target="Ad2AzPNfYspedzS9szeo-25">
          <mxGeometry relative="1" as="geometry">
            <mxPoint x="470" y="140" as="sourcePoint" />
            <mxPoint x="630" y="140" as="targetPoint" />
          </mxGeometry>
        </mxCell>
        <mxCell id="Ad2AzPNfYspedzS9szeo-36" value="" style="endArrow=none;html=1;rounded=0;exitX=1;exitY=0.25;exitDx=0;exitDy=0;entryX=0;entryY=0.5;entryDx=0;entryDy=0;" edge="1" parent="Ad2AzPNfYspedzS9szeo-20" source="Ad2AzPNfYspedzS9szeo-21" target="Ad2AzPNfYspedzS9szeo-26">
          <mxGeometry relative="1" as="geometry">
            <mxPoint x="470" y="140" as="sourcePoint" />
            <mxPoint x="630" y="140" as="targetPoint" />
          </mxGeometry>
        </mxCell>
        <mxCell id="Ad2AzPNfYspedzS9szeo-37" value="" style="endArrow=none;html=1;rounded=0;exitX=1;exitY=0.75;exitDx=0;exitDy=0;entryX=0;entryY=0.5;entryDx=0;entryDy=0;" edge="1" parent="Ad2AzPNfYspedzS9szeo-20" source="Ad2AzPNfYspedzS9szeo-21" target="Ad2AzPNfYspedzS9szeo-27">
          <mxGeometry relative="1" as="geometry">
            <mxPoint x="470" y="140" as="sourcePoint" />
            <mxPoint x="630" y="140" as="targetPoint" />
          </mxGeometry>
        </mxCell>
        <mxCell id="Ad2AzPNfYspedzS9szeo-38" value="" style="endArrow=none;html=1;rounded=0;exitX=1;exitY=0;exitDx=0;exitDy=0;entryX=0;entryY=0.75;entryDx=0;entryDy=0;" edge="1" parent="Ad2AzPNfYspedzS9szeo-20" source="Ad2AzPNfYspedzS9szeo-31" target="Ad2AzPNfYspedzS9szeo-21">
          <mxGeometry relative="1" as="geometry">
            <mxPoint x="470" y="140" as="sourcePoint" />
            <mxPoint x="630" y="140" as="targetPoint" />
          </mxGeometry>
        </mxCell>
        <mxCell id="Ad2AzPNfYspedzS9szeo-39" value="" style="endArrow=none;html=1;rounded=0;entryX=0;entryY=0;entryDx=0;entryDy=0;exitX=1;exitY=1;exitDx=0;exitDy=0;" edge="1" parent="Ad2AzPNfYspedzS9szeo-20" source="Ad2AzPNfYspedzS9szeo-21" target="Ad2AzPNfYspedzS9szeo-28">
          <mxGeometry relative="1" as="geometry">
            <mxPoint x="270" y="170" as="sourcePoint" />
            <mxPoint x="630" y="140" as="targetPoint" />
          </mxGeometry>
        </mxCell>
        <mxCell id="Ad2AzPNfYspedzS9szeo-40" value="" style="endArrow=none;html=1;rounded=0;exitX=0.75;exitY=1;exitDx=0;exitDy=0;entryX=0.5;entryY=0;entryDx=0;entryDy=0;" edge="1" parent="Ad2AzPNfYspedzS9szeo-20" source="Ad2AzPNfYspedzS9szeo-21" target="Ad2AzPNfYspedzS9szeo-29">
          <mxGeometry relative="1" as="geometry">
            <mxPoint x="470" y="140" as="sourcePoint" />
            <mxPoint x="630" y="140" as="targetPoint" />
          </mxGeometry>
        </mxCell>
        <mxCell id="Ad2AzPNfYspedzS9szeo-41" value="" style="endArrow=none;html=1;rounded=0;exitX=0.5;exitY=0;exitDx=0;exitDy=0;entryX=0.25;entryY=1;entryDx=0;entryDy=0;" edge="1" parent="Ad2AzPNfYspedzS9szeo-20" source="Ad2AzPNfYspedzS9szeo-30" target="Ad2AzPNfYspedzS9szeo-21">
          <mxGeometry relative="1" as="geometry">
            <mxPoint x="470" y="140" as="sourcePoint" />
            <mxPoint x="630" y="140" as="targetPoint" />
          </mxGeometry>
        </mxCell>
        <mxCell id="Ad2AzPNfYspedzS9szeo-42" value="(1,n)" style="text;html=1;align=center;verticalAlign=middle;resizable=0;points=[];autosize=1;strokeColor=none;fillColor=none;" vertex="1" parent="Ad2AzPNfYspedzS9szeo-20">
          <mxGeometry x="150" y="130" width="50" height="30" as="geometry" />
        </mxCell>
        <mxCell id="Ad2AzPNfYspedzS9szeo-43" value="" style="group" vertex="1" connectable="0" parent="1">
          <mxGeometry x="510" y="677" width="330" height="150" as="geometry" />
        </mxCell>
        <mxCell id="Ad2AzPNfYspedzS9szeo-44" value="Ubicacion" style="whiteSpace=wrap;html=1;align=center;" vertex="1" parent="Ad2AzPNfYspedzS9szeo-43">
          <mxGeometry x="110" y="50" width="100" height="40" as="geometry" />
        </mxCell>
        <mxCell id="Ad2AzPNfYspedzS9szeo-46" value="&lt;u&gt;nombre&lt;/u&gt;" style="ellipse;whiteSpace=wrap;html=1;align=center;" vertex="1" parent="Ad2AzPNfYspedzS9szeo-43">
          <mxGeometry x="-25" y="96" width="100" height="40" as="geometry" />
        </mxCell>
        <mxCell id="Ad2AzPNfYspedzS9szeo-47" value="planta" style="ellipse;whiteSpace=wrap;html=1;align=center;" vertex="1" parent="Ad2AzPNfYspedzS9szeo-43">
          <mxGeometry x="200" width="100" height="40" as="geometry" />
        </mxCell>
        <mxCell id="Ad2AzPNfYspedzS9szeo-48" value="tipo" style="ellipse;whiteSpace=wrap;html=1;align=center;" vertex="1" parent="Ad2AzPNfYspedzS9szeo-43">
          <mxGeometry x="200" y="96" width="100" height="40" as="geometry" />
        </mxCell>
        <mxCell id="Ad2AzPNfYspedzS9szeo-49" value="" style="endArrow=none;html=1;rounded=0;exitX=0;exitY=1;exitDx=0;exitDy=0;entryX=0.75;entryY=0;entryDx=0;entryDy=0;" edge="1" parent="Ad2AzPNfYspedzS9szeo-43" source="Ad2AzPNfYspedzS9szeo-47" target="Ad2AzPNfYspedzS9szeo-44">
          <mxGeometry relative="1" as="geometry">
            <mxPoint x="440" y="-130" as="sourcePoint" />
            <mxPoint x="600" y="-130" as="targetPoint" />
          </mxGeometry>
        </mxCell>
        <mxCell id="Ad2AzPNfYspedzS9szeo-51" value="" style="endArrow=none;html=1;rounded=0;exitX=0.75;exitY=1;exitDx=0;exitDy=0;entryX=0;entryY=0;entryDx=0;entryDy=0;" edge="1" parent="Ad2AzPNfYspedzS9szeo-43" source="Ad2AzPNfYspedzS9szeo-44" target="Ad2AzPNfYspedzS9szeo-48">
          <mxGeometry relative="1" as="geometry">
            <mxPoint x="440" y="-130" as="sourcePoint" />
            <mxPoint x="600" y="-130" as="targetPoint" />
          </mxGeometry>
        </mxCell>
        <mxCell id="Ad2AzPNfYspedzS9szeo-52" value="" style="endArrow=none;html=1;rounded=0;exitX=0;exitY=0.75;exitDx=0;exitDy=0;entryX=1;entryY=0;entryDx=0;entryDy=0;" edge="1" parent="Ad2AzPNfYspedzS9szeo-43" source="Ad2AzPNfYspedzS9szeo-44" target="Ad2AzPNfYspedzS9szeo-46">
          <mxGeometry relative="1" as="geometry">
            <mxPoint x="440" y="-130" as="sourcePoint" />
            <mxPoint x="600" y="-130" as="targetPoint" />
          </mxGeometry>
        </mxCell>
        <mxCell id="Ad2AzPNfYspedzS9szeo-53" value="" style="group" vertex="1" connectable="0" parent="1">
          <mxGeometry x="410" y="484" width="360" height="162" as="geometry" />
        </mxCell>
        <mxCell id="Ad2AzPNfYspedzS9szeo-54" value="Producto" style="whiteSpace=wrap;html=1;align=center;" vertex="1" parent="Ad2AzPNfYspedzS9szeo-53">
          <mxGeometry x="160" y="62" width="100" height="40" as="geometry" />
        </mxCell>
        <mxCell id="Ad2AzPNfYspedzS9szeo-55" value="&lt;div&gt;principios_activos&lt;/div&gt;" style="ellipse;whiteSpace=wrap;html=1;align=center;" vertex="1" parent="Ad2AzPNfYspedzS9szeo-53">
          <mxGeometry x="240" y="3" width="110" height="40" as="geometry" />
        </mxCell>
        <mxCell id="Ad2AzPNfYspedzS9szeo-56" value="concentraciones" style="ellipse;whiteSpace=wrap;html=1;align=center;" vertex="1" parent="Ad2AzPNfYspedzS9szeo-53">
          <mxGeometry x="250" y="116" width="100" height="40" as="geometry" />
        </mxCell>
        <mxCell id="Ad2AzPNfYspedzS9szeo-59" value="" style="endArrow=none;html=1;rounded=0;exitX=0;exitY=1;exitDx=0;exitDy=0;entryX=0.75;entryY=0;entryDx=0;entryDy=0;" edge="1" parent="Ad2AzPNfYspedzS9szeo-53" source="Ad2AzPNfYspedzS9szeo-55" target="Ad2AzPNfYspedzS9szeo-54">
          <mxGeometry relative="1" as="geometry">
            <mxPoint x="450" y="-8" as="sourcePoint" />
            <mxPoint x="610" y="-8" as="targetPoint" />
          </mxGeometry>
        </mxCell>
        <mxCell id="Ad2AzPNfYspedzS9szeo-60" value="" style="endArrow=none;html=1;rounded=0;entryX=0;entryY=0;entryDx=0;entryDy=0;exitX=0.75;exitY=1;exitDx=0;exitDy=0;" edge="1" parent="Ad2AzPNfYspedzS9szeo-53" source="Ad2AzPNfYspedzS9szeo-54" target="Ad2AzPNfYspedzS9szeo-56">
          <mxGeometry relative="1" as="geometry">
            <mxPoint x="450" y="-8" as="sourcePoint" />
            <mxPoint x="610" y="-8" as="targetPoint" />
          </mxGeometry>
        </mxCell>
        <mxCell id="Ad2AzPNfYspedzS9szeo-61" value="provee" style="shape=rhombus;perimeter=rhombusPerimeter;whiteSpace=wrap;html=1;align=center;" vertex="1" parent="Ad2AzPNfYspedzS9szeo-53">
          <mxGeometry x="-42" y="51" width="120" height="60" as="geometry" />
        </mxCell>
        <mxCell id="Ad2AzPNfYspedzS9szeo-62" value="" style="endArrow=none;html=1;rounded=0;entryX=0;entryY=0.5;entryDx=0;entryDy=0;exitX=1;exitY=0.5;exitDx=0;exitDy=0;" edge="1" parent="Ad2AzPNfYspedzS9szeo-53" source="Ad2AzPNfYspedzS9szeo-61" target="Ad2AzPNfYspedzS9szeo-54">
          <mxGeometry relative="1" as="geometry">
            <mxPoint x="90" y="66" as="sourcePoint" />
            <mxPoint x="250" y="66" as="targetPoint" />
          </mxGeometry>
        </mxCell>
        <mxCell id="Ad2AzPNfYspedzS9szeo-63" value="[N:M]" style="text;html=1;align=center;verticalAlign=middle;resizable=0;points=[];autosize=1;strokeColor=none;fillColor=none;" vertex="1" parent="Ad2AzPNfYspedzS9szeo-53">
          <mxGeometry x="-7" y="21" width="50" height="30" as="geometry" />
        </mxCell>
        <mxCell id="Ad2AzPNfYspedzS9szeo-64" value="presenta" style="shape=rhombus;perimeter=rhombusPerimeter;whiteSpace=wrap;html=1;align=center;" vertex="1" parent="1">
          <mxGeometry x="725" y="535" width="120" height="60" as="geometry" />
        </mxCell>
        <mxCell id="Ad2AzPNfYspedzS9szeo-65" value="" style="group" vertex="1" connectable="0" parent="1">
          <mxGeometry x="819" y="455" width="350" height="220" as="geometry" />
        </mxCell>
        <mxCell id="Ad2AzPNfYspedzS9szeo-67" value="fecha_modificacion" style="ellipse;whiteSpace=wrap;html=1;align=center;fontStyle=0" vertex="1" parent="Ad2AzPNfYspedzS9szeo-65">
          <mxGeometry x="211" y="65" width="120" height="40" as="geometry" />
        </mxCell>
        <mxCell id="Ad2AzPNfYspedzS9szeo-68" value="cantidad" style="ellipse;whiteSpace=wrap;html=1;align=center;" vertex="1" parent="Ad2AzPNfYspedzS9szeo-65">
          <mxGeometry x="221" y="118" width="100" height="40" as="geometry" />
        </mxCell>
        <mxCell id="Ad2AzPNfYspedzS9szeo-69" value="unidad" style="ellipse;whiteSpace=wrap;html=1;align=center;" vertex="1" parent="Ad2AzPNfYspedzS9szeo-65">
          <mxGeometry x="160" y="158" width="100" height="40" as="geometry" />
        </mxCell>
        <mxCell id="Ad2AzPNfYspedzS9szeo-71" value="" style="endArrow=none;html=1;rounded=0;entryX=0;entryY=0.5;entryDx=0;entryDy=0;exitX=1;exitY=0.25;exitDx=0;exitDy=0;" edge="1" parent="Ad2AzPNfYspedzS9szeo-65" source="Ad2AzPNfYspedzS9szeo-76" target="Ad2AzPNfYspedzS9szeo-67">
          <mxGeometry relative="1" as="geometry">
            <mxPoint x="181" y="99.5" as="sourcePoint" />
            <mxPoint x="190" y="50" as="targetPoint" />
          </mxGeometry>
        </mxCell>
        <mxCell id="Ad2AzPNfYspedzS9szeo-72" value="" style="endArrow=none;html=1;rounded=0;entryX=0;entryY=0.5;entryDx=0;entryDy=0;exitX=1;exitY=0.75;exitDx=0;exitDy=0;" edge="1" parent="Ad2AzPNfYspedzS9szeo-65" source="Ad2AzPNfYspedzS9szeo-76" target="Ad2AzPNfYspedzS9szeo-68">
          <mxGeometry relative="1" as="geometry">
            <mxPoint x="181" y="120.5" as="sourcePoint" />
            <mxPoint x="190" y="50" as="targetPoint" />
          </mxGeometry>
        </mxCell>
        <mxCell id="Ad2AzPNfYspedzS9szeo-73" value="" style="endArrow=none;html=1;rounded=0;entryX=0.15;entryY=0.975;entryDx=0;entryDy=0;exitX=1;exitY=0;exitDx=0;exitDy=0;entryPerimeter=0;" edge="1" parent="Ad2AzPNfYspedzS9szeo-65" source="Ad2AzPNfYspedzS9szeo-77" target="Ad2AzPNfYspedzS9szeo-76">
          <mxGeometry relative="1" as="geometry">
            <mxPoint x="66.14552060384221" y="160.77443213653964" as="sourcePoint" />
            <mxPoint x="104.5" y="131" as="targetPoint" />
          </mxGeometry>
        </mxCell>
        <mxCell id="Ad2AzPNfYspedzS9szeo-74" value="" style="endArrow=none;html=1;rounded=0;entryX=0;entryY=0;entryDx=0;entryDy=0;exitX=0.84;exitY=1;exitDx=0;exitDy=0;exitPerimeter=0;" edge="1" parent="Ad2AzPNfYspedzS9szeo-65" source="Ad2AzPNfYspedzS9szeo-76" target="Ad2AzPNfYspedzS9szeo-69">
          <mxGeometry relative="1" as="geometry">
            <mxPoint x="161" y="125" as="sourcePoint" />
            <mxPoint x="190" y="50" as="targetPoint" />
          </mxGeometry>
        </mxCell>
        <mxCell id="Ad2AzPNfYspedzS9szeo-75" value="(0,n)" style="text;html=1;align=center;verticalAlign=middle;resizable=0;points=[];autosize=1;strokeColor=none;fillColor=none;" vertex="1" parent="Ad2AzPNfYspedzS9szeo-65">
          <mxGeometry x="85" y="129" width="50" height="30" as="geometry" />
        </mxCell>
        <mxCell id="Ad2AzPNfYspedzS9szeo-76" value="Existencia" style="shape=ext;margin=3;double=1;whiteSpace=wrap;html=1;align=center;" vertex="1" parent="Ad2AzPNfYspedzS9szeo-65">
          <mxGeometry x="81" y="90" width="100" height="40" as="geometry" />
        </mxCell>
        <mxCell id="Ad2AzPNfYspedzS9szeo-77" value="&lt;span style=&quot;border-bottom: 1px dotted&quot;&gt;fecha_caducidad&lt;br&gt;&lt;/span&gt;" style="ellipse;whiteSpace=wrap;html=1;align=center;" vertex="1" parent="Ad2AzPNfYspedzS9szeo-65">
          <mxGeometry x="-40" y="155" width="111" height="40" as="geometry" />
        </mxCell>
        <mxCell id="Ad2AzPNfYspedzS9szeo-78" value="situada_en" style="shape=rhombus;perimeter=rhombusPerimeter;whiteSpace=wrap;html=1;align=center;" vertex="1" parent="1">
          <mxGeometry x="812" y="715" width="120" height="60" as="geometry" />
        </mxCell>
        <mxCell id="Ad2AzPNfYspedzS9szeo-79" value="" style="endArrow=none;html=1;rounded=0;exitX=1;exitY=0.5;exitDx=0;exitDy=0;entryX=0.5;entryY=1;entryDx=0;entryDy=0;" edge="1" parent="1" source="Ad2AzPNfYspedzS9szeo-78" target="Ad2AzPNfYspedzS9szeo-76">
          <mxGeometry relative="1" as="geometry">
            <mxPoint x="790" y="525" as="sourcePoint" />
            <mxPoint x="970" y="650" as="targetPoint" />
            <Array as="points">
              <mxPoint x="949" y="745" />
            </Array>
          </mxGeometry>
        </mxCell>
        <mxCell id="Ad2AzPNfYspedzS9szeo-80" value="" style="endArrow=none;html=1;rounded=0;entryX=0;entryY=0.5;entryDx=0;entryDy=0;exitX=1;exitY=0.5;exitDx=0;exitDy=0;" edge="1" parent="1" source="Ad2AzPNfYspedzS9szeo-54" target="Ad2AzPNfYspedzS9szeo-64">
          <mxGeometry relative="1" as="geometry">
            <mxPoint x="790" y="595" as="sourcePoint" />
            <mxPoint x="950" y="595" as="targetPoint" />
          </mxGeometry>
        </mxCell>
        <mxCell id="Ad2AzPNfYspedzS9szeo-81" value="" style="endArrow=none;html=1;rounded=0;entryX=0;entryY=0.5;entryDx=0;entryDy=0;exitX=1;exitY=0.5;exitDx=0;exitDy=0;" edge="1" parent="1" source="Ad2AzPNfYspedzS9szeo-64" target="Ad2AzPNfYspedzS9szeo-76">
          <mxGeometry relative="1" as="geometry">
            <mxPoint x="790" y="525" as="sourcePoint" />
            <mxPoint x="898" y="565" as="targetPoint" />
          </mxGeometry>
        </mxCell>
        <mxCell id="Ad2AzPNfYspedzS9szeo-82" value="" style="endArrow=none;html=1;rounded=0;entryX=0;entryY=0.5;entryDx=0;entryDy=0;exitX=1;exitY=0.5;exitDx=0;exitDy=0;" edge="1" parent="1" source="Ad2AzPNfYspedzS9szeo-44" target="Ad2AzPNfYspedzS9szeo-78">
          <mxGeometry relative="1" as="geometry">
            <mxPoint x="790" y="525" as="sourcePoint" />
            <mxPoint x="950" y="525" as="targetPoint" />
          </mxGeometry>
        </mxCell>
        <mxCell id="Ad2AzPNfYspedzS9szeo-83" value="&lt;div&gt;contabiliza&lt;/div&gt;" style="shape=rhombus;perimeter=rhombusPerimeter;whiteSpace=wrap;html=1;align=center;" vertex="1" parent="1">
          <mxGeometry x="890" y="357" width="120" height="60" as="geometry" />
        </mxCell>
        <mxCell id="Ad2AzPNfYspedzS9szeo-84" value="" style="endArrow=none;html=1;rounded=0;exitX=0.5;exitY=1;exitDx=0;exitDy=0;entryX=0.5;entryY=0;entryDx=0;entryDy=0;" edge="1" parent="1" source="Ad2AzPNfYspedzS9szeo-83" target="Ad2AzPNfYspedzS9szeo-76">
          <mxGeometry relative="1" as="geometry">
            <mxPoint x="790" y="445" as="sourcePoint" />
            <mxPoint x="974.5" y="544" as="targetPoint" />
            <Array as="points" />
          </mxGeometry>
        </mxCell>
        <mxCell id="Ad2AzPNfYspedzS9szeo-85" value="" style="endArrow=none;html=1;rounded=0;exitX=0.5;exitY=1;exitDx=0;exitDy=0;entryX=0;entryY=0;entryDx=0;entryDy=0;" edge="1" parent="1" source="Ad2AzPNfYspedzS9szeo-21" target="Ad2AzPNfYspedzS9szeo-83">
          <mxGeometry relative="1" as="geometry">
            <mxPoint x="790" y="445" as="sourcePoint" />
            <mxPoint x="1050" y="340" as="targetPoint" />
            <Array as="points">
              <mxPoint x="880" y="340" />
            </Array>
          </mxGeometry>
        </mxCell>
        <mxCell id="Ad2AzPNfYspedzS9szeo-86" value="gestiona" style="shape=rhombus;perimeter=rhombusPerimeter;whiteSpace=wrap;html=1;align=center;" vertex="1" parent="1">
          <mxGeometry x="8" y="484" width="120" height="60" as="geometry" />
        </mxCell>
        <mxCell id="Ad2AzPNfYspedzS9szeo-87" value="" style="endArrow=none;html=1;rounded=0;exitX=0.25;exitY=1;exitDx=0;exitDy=0;entryX=0.5;entryY=0;entryDx=0;entryDy=0;" edge="1" parent="1" source="Ad2AzPNfYspedzS9szeo-97" target="Ad2AzPNfYspedzS9szeo-86">
          <mxGeometry relative="1" as="geometry">
            <mxPoint x="500" y="410" as="sourcePoint" />
            <mxPoint x="660" y="410" as="targetPoint" />
            <Array as="points">
              <mxPoint x="70" y="230" />
            </Array>
          </mxGeometry>
        </mxCell>
        <mxCell id="Ad2AzPNfYspedzS9szeo-88" value="" style="endArrow=none;html=1;rounded=0;exitX=0.5;exitY=0;exitDx=0;exitDy=0;entryX=1;entryY=0.5;entryDx=0;entryDy=0;" edge="1" parent="1" source="Ad2AzPNfYspedzS9szeo-2" target="Ad2AzPNfYspedzS9szeo-86">
          <mxGeometry relative="1" as="geometry">
            <mxPoint x="500" y="480" as="sourcePoint" />
            <mxPoint x="660" y="480" as="targetPoint" />
            <Array as="points">
              <mxPoint x="220" y="514" />
            </Array>
          </mxGeometry>
        </mxCell>
        <mxCell id="Ad2AzPNfYspedzS9szeo-89" value="modifica" style="shape=rhombus;perimeter=rhombusPerimeter;whiteSpace=wrap;html=1;align=center;" vertex="1" parent="1">
          <mxGeometry x="450" y="68" width="120" height="60" as="geometry" />
        </mxCell>
        <mxCell id="Ad2AzPNfYspedzS9szeo-90" value="" style="endArrow=none;html=1;rounded=0;entryX=0;entryY=0;entryDx=0;entryDy=0;exitX=1;exitY=0.5;exitDx=0;exitDy=0;" edge="1" parent="1" source="Ad2AzPNfYspedzS9szeo-89" target="Ad2AzPNfYspedzS9szeo-21">
          <mxGeometry relative="1" as="geometry">
            <mxPoint x="500" y="330" as="sourcePoint" />
            <mxPoint x="660" y="330" as="targetPoint" />
            <Array as="points">
              <mxPoint x="750" y="98" />
            </Array>
          </mxGeometry>
        </mxCell>
        <mxCell id="Ad2AzPNfYspedzS9szeo-91" value="" style="endArrow=none;html=1;rounded=0;entryX=0;entryY=0.5;entryDx=0;entryDy=0;exitX=1;exitY=0.5;exitDx=0;exitDy=0;" edge="1" parent="1" source="Ad2AzPNfYspedzS9szeo-97" target="Ad2AzPNfYspedzS9szeo-89">
          <mxGeometry relative="1" as="geometry">
            <mxPoint x="500" y="330" as="sourcePoint" />
            <mxPoint x="660" y="330" as="targetPoint" />
            <Array as="points" />
          </mxGeometry>
        </mxCell>
        <mxCell id="Ad2AzPNfYspedzS9szeo-92" value="" style="group" vertex="1" connectable="0" parent="1">
          <mxGeometry x="30" y="10" width="320" height="106" as="geometry" />
        </mxCell>
        <mxCell id="Ad2AzPNfYspedzS9szeo-93" value="comentario" style="ellipse;whiteSpace=wrap;html=1;align=center;" vertex="1" parent="Ad2AzPNfYspedzS9szeo-92">
          <mxGeometry x="220" width="100" height="40" as="geometry" />
        </mxCell>
        <mxCell id="Ad2AzPNfYspedzS9szeo-94" value="" style="endArrow=none;html=1;rounded=0;exitX=0.75;exitY=0;exitDx=0;exitDy=0;entryX=0;entryY=1;entryDx=0;entryDy=0;" edge="1" parent="Ad2AzPNfYspedzS9szeo-92" source="Ad2AzPNfYspedzS9szeo-97" target="Ad2AzPNfYspedzS9szeo-93">
          <mxGeometry relative="1" as="geometry">
            <mxPoint x="470" y="40" as="sourcePoint" />
            <mxPoint x="630" y="40" as="targetPoint" />
          </mxGeometry>
        </mxCell>
        <mxCell id="Ad2AzPNfYspedzS9szeo-95" value="numero_pedido" style="ellipse;whiteSpace=wrap;html=1;align=center;fontStyle=4" vertex="1" parent="Ad2AzPNfYspedzS9szeo-92">
          <mxGeometry x="70" width="100" height="40" as="geometry" />
        </mxCell>
        <mxCell id="Ad2AzPNfYspedzS9szeo-96" value="" style="endArrow=none;html=1;rounded=0;exitX=1;exitY=1;exitDx=0;exitDy=0;entryX=0.25;entryY=0;entryDx=0;entryDy=0;" edge="1" parent="Ad2AzPNfYspedzS9szeo-92" source="Ad2AzPNfYspedzS9szeo-95" target="Ad2AzPNfYspedzS9szeo-97">
          <mxGeometry relative="1" as="geometry">
            <mxPoint x="490" y="36" as="sourcePoint" />
            <mxPoint x="650" y="36" as="targetPoint" />
          </mxGeometry>
        </mxCell>
        <mxCell id="Ad2AzPNfYspedzS9szeo-97" value="Pedido" style="whiteSpace=wrap;html=1;align=center;" vertex="1" parent="Ad2AzPNfYspedzS9szeo-92">
          <mxGeometry x="140" y="66" width="100" height="40" as="geometry" />
        </mxCell>
        <mxCell id="Ad2AzPNfYspedzS9szeo-100" value="contiene" style="shape=rhombus;perimeter=rhombusPerimeter;whiteSpace=wrap;html=1;align=center;" vertex="1" parent="1">
          <mxGeometry x="235" y="190" width="120" height="60" as="geometry" />
        </mxCell>
        <mxCell id="Ad2AzPNfYspedzS9szeo-101" value="&lt;div&gt;solicita&lt;/div&gt;" style="shape=rhombus;perimeter=rhombusPerimeter;whiteSpace=wrap;html=1;align=center;" vertex="1" parent="1">
          <mxGeometry x="560" y="364" width="120" height="60" as="geometry" />
        </mxCell>
        <mxCell id="Ad2AzPNfYspedzS9szeo-102" value="" style="endArrow=none;html=1;rounded=0;exitX=0;exitY=0;exitDx=0;exitDy=0;" edge="1" parent="1" source="Ad2AzPNfYspedzS9szeo-100" target="Ad2AzPNfYspedzS9szeo-97">
          <mxGeometry relative="1" as="geometry">
            <mxPoint x="500" y="390" as="sourcePoint" />
            <mxPoint x="660" y="390" as="targetPoint" />
          </mxGeometry>
        </mxCell>
        <mxCell id="Ad2AzPNfYspedzS9szeo-103" value="" style="endArrow=none;html=1;rounded=0;exitX=0.5;exitY=1;exitDx=0;exitDy=0;entryX=0.5;entryY=0;entryDx=0;entryDy=0;" edge="1" parent="1" source="Ad2AzPNfYspedzS9szeo-100" target="Ad2AzPNfYspedzS9szeo-108">
          <mxGeometry relative="1" as="geometry">
            <mxPoint x="500" y="390" as="sourcePoint" />
            <mxPoint x="660" y="390" as="targetPoint" />
          </mxGeometry>
        </mxCell>
        <mxCell id="Ad2AzPNfYspedzS9szeo-104" value="" style="endArrow=none;html=1;rounded=0;exitX=1;exitY=0.5;exitDx=0;exitDy=0;entryX=0;entryY=0.5;entryDx=0;entryDy=0;" edge="1" parent="1" source="Ad2AzPNfYspedzS9szeo-108" target="Ad2AzPNfYspedzS9szeo-101">
          <mxGeometry relative="1" as="geometry">
            <mxPoint x="500" y="390" as="sourcePoint" />
            <mxPoint x="660" y="390" as="targetPoint" />
          </mxGeometry>
        </mxCell>
        <mxCell id="Ad2AzPNfYspedzS9szeo-105" value="" style="endArrow=none;html=1;rounded=0;entryX=0.5;entryY=0;entryDx=0;entryDy=0;exitX=0.5;exitY=1;exitDx=0;exitDy=0;" edge="1" parent="1" source="Ad2AzPNfYspedzS9szeo-101" target="Ad2AzPNfYspedzS9szeo-54">
          <mxGeometry relative="1" as="geometry">
            <mxPoint x="500" y="460" as="sourcePoint" />
            <mxPoint x="660" y="460" as="targetPoint" />
          </mxGeometry>
        </mxCell>
        <mxCell id="Ad2AzPNfYspedzS9szeo-106" value="modifica" style="shape=rhombus;perimeter=rhombusPerimeter;whiteSpace=wrap;html=1;align=center;" vertex="1" parent="1">
          <mxGeometry x="471" y="280" width="129" height="60" as="geometry" />
        </mxCell>
        <mxCell id="Ad2AzPNfYspedzS9szeo-107" value="" style="group" vertex="1" connectable="0" parent="1">
          <mxGeometry x="105" y="294" width="480" height="230" as="geometry" />
        </mxCell>
        <mxCell id="Ad2AzPNfYspedzS9szeo-108" value="LineaPedido" style="shape=ext;margin=3;double=1;whiteSpace=wrap;html=1;align=center;" vertex="1" parent="Ad2AzPNfYspedzS9szeo-107">
          <mxGeometry x="140" y="80" width="100" height="40" as="geometry" />
        </mxCell>
        <mxCell id="Ad2AzPNfYspedzS9szeo-109" value="&lt;span style=&quot;border-bottom: 1px dotted&quot;&gt;numero_linea&lt;br&gt;&lt;/span&gt;" style="ellipse;whiteSpace=wrap;html=1;align=center;" vertex="1" parent="Ad2AzPNfYspedzS9szeo-107">
          <mxGeometry x="55" y="-10" width="100" height="40" as="geometry" />
        </mxCell>
        <mxCell id="Ad2AzPNfYspedzS9szeo-110" value="cantidad_solicitada" style="ellipse;whiteSpace=wrap;html=1;align=center;" vertex="1" parent="Ad2AzPNfYspedzS9szeo-107">
          <mxGeometry y="120" width="120" height="40" as="geometry" />
        </mxCell>
        <mxCell id="Ad2AzPNfYspedzS9szeo-111" value="unidad" style="ellipse;whiteSpace=wrap;html=1;align=center;" vertex="1" parent="Ad2AzPNfYspedzS9szeo-107">
          <mxGeometry x="140" y="150" width="100" height="40" as="geometry" />
        </mxCell>
        <mxCell id="Ad2AzPNfYspedzS9szeo-112" value="comentario" style="ellipse;whiteSpace=wrap;html=1;align=center;" vertex="1" parent="Ad2AzPNfYspedzS9szeo-107">
          <mxGeometry x="265" y="124" width="100" height="40" as="geometry" />
        </mxCell>
        <mxCell id="Ad2AzPNfYspedzS9szeo-113" value="cantidad_recibida" style="ellipse;whiteSpace=wrap;html=1;align=center;" vertex="1" parent="Ad2AzPNfYspedzS9szeo-107">
          <mxGeometry y="50" width="110" height="40" as="geometry" />
        </mxCell>
        <mxCell id="Ad2AzPNfYspedzS9szeo-114" value="" style="endArrow=none;html=1;rounded=0;exitX=1;exitY=1;exitDx=0;exitDy=0;entryX=0;entryY=0.25;entryDx=0;entryDy=0;" edge="1" parent="Ad2AzPNfYspedzS9szeo-107" source="Ad2AzPNfYspedzS9szeo-113" target="Ad2AzPNfYspedzS9szeo-108">
          <mxGeometry relative="1" as="geometry">
            <mxPoint x="260" y="200" as="sourcePoint" />
            <mxPoint x="420" y="200" as="targetPoint" />
          </mxGeometry>
        </mxCell>
        <mxCell id="Ad2AzPNfYspedzS9szeo-115" value="" style="endArrow=none;html=1;rounded=0;exitX=1;exitY=0;exitDx=0;exitDy=0;entryX=0;entryY=0.75;entryDx=0;entryDy=0;" edge="1" parent="Ad2AzPNfYspedzS9szeo-107" source="Ad2AzPNfYspedzS9szeo-110" target="Ad2AzPNfYspedzS9szeo-108">
          <mxGeometry relative="1" as="geometry">
            <mxPoint x="260" y="200" as="sourcePoint" />
            <mxPoint x="420" y="200" as="targetPoint" />
          </mxGeometry>
        </mxCell>
        <mxCell id="Ad2AzPNfYspedzS9szeo-116" value="" style="endArrow=none;html=1;rounded=0;exitX=1;exitY=1;exitDx=0;exitDy=0;entryX=0;entryY=0;entryDx=0;entryDy=0;" edge="1" parent="Ad2AzPNfYspedzS9szeo-107" source="Ad2AzPNfYspedzS9szeo-108" target="Ad2AzPNfYspedzS9szeo-112">
          <mxGeometry relative="1" as="geometry">
            <mxPoint x="260" y="200" as="sourcePoint" />
            <mxPoint x="420" y="200" as="targetPoint" />
          </mxGeometry>
        </mxCell>
        <mxCell id="Ad2AzPNfYspedzS9szeo-117" value="" style="endArrow=none;html=1;rounded=0;entryX=0.5;entryY=1;entryDx=0;entryDy=0;" edge="1" parent="Ad2AzPNfYspedzS9szeo-107" source="Ad2AzPNfYspedzS9szeo-111" target="Ad2AzPNfYspedzS9szeo-108">
          <mxGeometry relative="1" as="geometry">
            <mxPoint x="260" y="200" as="sourcePoint" />
            <mxPoint x="420" y="200" as="targetPoint" />
          </mxGeometry>
        </mxCell>
        <mxCell id="Ad2AzPNfYspedzS9szeo-118" value="" style="endArrow=none;html=1;rounded=0;exitX=0.25;exitY=0;exitDx=0;exitDy=0;entryX=1;entryY=1;entryDx=0;entryDy=0;" edge="1" parent="Ad2AzPNfYspedzS9szeo-107" source="Ad2AzPNfYspedzS9szeo-108" target="Ad2AzPNfYspedzS9szeo-109">
          <mxGeometry relative="1" as="geometry">
            <mxPoint x="260" y="200" as="sourcePoint" />
            <mxPoint x="420" y="200" as="targetPoint" />
          </mxGeometry>
        </mxCell>
        <mxCell id="Ad2AzPNfYspedzS9szeo-119" value="comentario" style="ellipse;whiteSpace=wrap;html=1;align=center;" vertex="1" parent="Ad2AzPNfYspedzS9szeo-107">
          <mxGeometry x="290" y="42" width="100" height="40" as="geometry" />
        </mxCell>
        <mxCell id="Ad2AzPNfYspedzS9szeo-120" value="codigo" style="ellipse;whiteSpace=wrap;html=1;align=center;fontStyle=4" vertex="1" parent="Ad2AzPNfYspedzS9szeo-107">
          <mxGeometry x="355" y="202" width="100" height="40" as="geometry" />
        </mxCell>
        <mxCell id="Ad2AzPNfYspedzS9szeo-121" value="nombre" style="ellipse;whiteSpace=wrap;html=1;align=center;" vertex="1" parent="Ad2AzPNfYspedzS9szeo-107">
          <mxGeometry x="367" y="148" width="100" height="40" as="geometry" />
        </mxCell>
        <mxCell id="Ad2AzPNfYspedzS9szeo-122" value="fecha_modificacion" style="ellipse;whiteSpace=wrap;html=1;align=center;" vertex="1" parent="1">
          <mxGeometry x="520" y="146" width="120" height="40" as="geometry" />
        </mxCell>
        <mxCell id="Ad2AzPNfYspedzS9szeo-123" value="" style="endArrow=none;html=1;rounded=0;entryX=1;entryY=1;entryDx=0;entryDy=0;exitX=0.5;exitY=0;exitDx=0;exitDy=0;" edge="1" parent="1" source="Ad2AzPNfYspedzS9szeo-122" target="Ad2AzPNfYspedzS9szeo-89">
          <mxGeometry relative="1" as="geometry">
            <mxPoint x="500" y="250" as="sourcePoint" />
            <mxPoint x="660" y="250" as="targetPoint" />
          </mxGeometry>
        </mxCell>
        <mxCell id="Ad2AzPNfYspedzS9szeo-124" value="" style="endArrow=none;html=1;rounded=0;entryX=0.75;entryY=0;entryDx=0;entryDy=0;exitX=0;exitY=0.5;exitDx=0;exitDy=0;" edge="1" parent="1" source="Ad2AzPNfYspedzS9szeo-106" target="Ad2AzPNfYspedzS9szeo-108">
          <mxGeometry relative="1" as="geometry">
            <mxPoint x="500" y="250" as="sourcePoint" />
            <mxPoint x="660" y="250" as="targetPoint" />
            <Array as="points">
              <mxPoint x="390" y="310" />
            </Array>
          </mxGeometry>
        </mxCell>
        <mxCell id="Ad2AzPNfYspedzS9szeo-125" value="" style="endArrow=none;html=1;rounded=0;entryX=0;entryY=1;entryDx=0;entryDy=0;exitX=1;exitY=0.5;exitDx=0;exitDy=0;" edge="1" parent="1" source="Ad2AzPNfYspedzS9szeo-106" target="Ad2AzPNfYspedzS9szeo-21">
          <mxGeometry relative="1" as="geometry">
            <mxPoint x="500" y="250" as="sourcePoint" />
            <mxPoint x="820" y="210" as="targetPoint" />
            <Array as="points">
              <mxPoint x="720" y="310" />
            </Array>
          </mxGeometry>
        </mxCell>
        <mxCell id="Ad2AzPNfYspedzS9szeo-126" value="fecha_modificacion" style="ellipse;whiteSpace=wrap;html=1;align=center;" vertex="1" parent="1">
          <mxGeometry x="561" y="220" width="120" height="40" as="geometry" />
        </mxCell>
        <mxCell id="Ad2AzPNfYspedzS9szeo-127" value="" style="endArrow=none;html=1;rounded=0;entryX=1;entryY=0;entryDx=0;entryDy=0;exitX=0.5;exitY=1;exitDx=0;exitDy=0;" edge="1" parent="1" source="Ad2AzPNfYspedzS9szeo-126" target="Ad2AzPNfYspedzS9szeo-106">
          <mxGeometry relative="1" as="geometry">
            <mxPoint x="500" y="280" as="sourcePoint" />
            <mxPoint x="660" y="280" as="targetPoint" />
          </mxGeometry>
        </mxCell>
        <mxCell id="Ad2AzPNfYspedzS9szeo-128" value="estado" style="ellipse;whiteSpace=wrap;html=1;align=center;" vertex="1" parent="1">
          <mxGeometry x="423" y="220" width="100" height="40" as="geometry" />
        </mxCell>
        <mxCell id="Ad2AzPNfYspedzS9szeo-129" value="estado" style="ellipse;whiteSpace=wrap;html=1;align=center;" vertex="1" parent="1">
          <mxGeometry x="400" y="146" width="100" height="40" as="geometry" />
        </mxCell>
        <mxCell id="Ad2AzPNfYspedzS9szeo-130" value="" style="endArrow=none;html=1;rounded=0;entryX=0;entryY=1;entryDx=0;entryDy=0;exitX=0.5;exitY=0;exitDx=0;exitDy=0;" edge="1" parent="1" source="Ad2AzPNfYspedzS9szeo-129" target="Ad2AzPNfYspedzS9szeo-89">
          <mxGeometry relative="1" as="geometry">
            <mxPoint x="500" y="280" as="sourcePoint" />
            <mxPoint x="660" y="280" as="targetPoint" />
          </mxGeometry>
        </mxCell>
        <mxCell id="Ad2AzPNfYspedzS9szeo-131" value="" style="endArrow=none;html=1;rounded=0;entryX=0.5;entryY=1;entryDx=0;entryDy=0;exitX=0;exitY=0;exitDx=0;exitDy=0;" edge="1" parent="1" source="Ad2AzPNfYspedzS9szeo-106" target="Ad2AzPNfYspedzS9szeo-128">
          <mxGeometry relative="1" as="geometry">
            <mxPoint x="500" y="310" as="sourcePoint" />
            <mxPoint x="660" y="310" as="targetPoint" />
          </mxGeometry>
        </mxCell>
        <mxCell id="Ad2AzPNfYspedzS9szeo-132" value="" style="endArrow=none;html=1;rounded=0;entryX=1;entryY=0;entryDx=0;entryDy=0;exitX=0;exitY=1;exitDx=0;exitDy=0;" edge="1" parent="1" source="Ad2AzPNfYspedzS9szeo-106" target="Ad2AzPNfYspedzS9szeo-119">
          <mxGeometry relative="1" as="geometry">
            <mxPoint x="500" y="330" as="sourcePoint" />
            <mxPoint x="660" y="330" as="targetPoint" />
          </mxGeometry>
        </mxCell>
        <mxCell id="Ad2AzPNfYspedzS9szeo-133" value="comentario" style="ellipse;whiteSpace=wrap;html=1;align=center;" vertex="1" parent="1">
          <mxGeometry x="560" y="20" width="100" height="40" as="geometry" />
        </mxCell>
        <mxCell id="Ad2AzPNfYspedzS9szeo-134" value="" style="endArrow=none;html=1;rounded=0;entryX=0;entryY=1;entryDx=0;entryDy=0;exitX=1;exitY=0;exitDx=0;exitDy=0;" edge="1" parent="1" source="Ad2AzPNfYspedzS9szeo-89" target="Ad2AzPNfYspedzS9szeo-133">
          <mxGeometry relative="1" as="geometry">
            <mxPoint x="500" y="250" as="sourcePoint" />
            <mxPoint x="660" y="250" as="targetPoint" />
          </mxGeometry>
        </mxCell>
        <mxCell id="Ad2AzPNfYspedzS9szeo-135" value="formato" style="ellipse;whiteSpace=wrap;html=1;align=center;" vertex="1" parent="1">
          <mxGeometry x="570" y="630" width="100" height="40" as="geometry" />
        </mxCell>
        <mxCell id="Ad2AzPNfYspedzS9szeo-136" value="" style="endArrow=none;html=1;rounded=0;exitX=0.5;exitY=0;exitDx=0;exitDy=0;entryX=0.5;entryY=1;entryDx=0;entryDy=0;" edge="1" parent="1" source="Ad2AzPNfYspedzS9szeo-135" target="Ad2AzPNfYspedzS9szeo-54">
          <mxGeometry relative="1" as="geometry">
            <mxPoint x="860" y="476" as="sourcePoint" />
            <mxPoint x="1020" y="476" as="targetPoint" />
          </mxGeometry>
        </mxCell>
        <mxCell id="Ad2AzPNfYspedzS9szeo-137" value="" style="endArrow=none;html=1;rounded=0;exitX=1;exitY=0;exitDx=0;exitDy=0;entryX=0;entryY=1;entryDx=0;entryDy=0;" edge="1" parent="1" source="Ad2AzPNfYspedzS9szeo-2" target="Ad2AzPNfYspedzS9szeo-61">
          <mxGeometry relative="1" as="geometry">
            <mxPoint x="500" y="550" as="sourcePoint" />
            <mxPoint x="660" y="550" as="targetPoint" />
          </mxGeometry>
        </mxCell>
        <mxCell id="Ad2AzPNfYspedzS9szeo-138" value="" style="endArrow=none;html=1;rounded=0;exitX=1;exitY=1;exitDx=0;exitDy=0;entryX=0.25;entryY=0;entryDx=0;entryDy=0;" edge="1" parent="1" source="Ad2AzPNfYspedzS9szeo-121" target="Ad2AzPNfYspedzS9szeo-54">
          <mxGeometry relative="1" as="geometry">
            <mxPoint x="860" y="476" as="sourcePoint" />
            <mxPoint x="1020" y="476" as="targetPoint" />
          </mxGeometry>
        </mxCell>
        <mxCell id="Ad2AzPNfYspedzS9szeo-139" value="" style="endArrow=none;html=1;rounded=0;entryX=0;entryY=0;entryDx=0;entryDy=0;exitX=1;exitY=1;exitDx=0;exitDy=0;" edge="1" parent="1" source="Ad2AzPNfYspedzS9szeo-120" target="Ad2AzPNfYspedzS9szeo-54">
          <mxGeometry relative="1" as="geometry">
            <mxPoint x="500" y="390" as="sourcePoint" />
            <mxPoint x="660" y="390" as="targetPoint" />
          </mxGeometry>
        </mxCell>
        <mxCell id="Ad2AzPNfYspedzS9szeo-140" value="(0,n)" style="text;html=1;align=center;verticalAlign=middle;resizable=0;points=[];autosize=1;strokeColor=none;fillColor=none;" vertex="1" parent="1">
          <mxGeometry x="242" y="628" width="50" height="30" as="geometry" />
        </mxCell>
        <mxCell id="Ad2AzPNfYspedzS9szeo-141" value="(0,n)" style="text;html=1;align=center;verticalAlign=middle;resizable=0;points=[];autosize=1;strokeColor=none;fillColor=none;" vertex="1" parent="1">
          <mxGeometry x="522" y="538" width="50" height="30" as="geometry" />
        </mxCell>
        <mxCell id="Ad2AzPNfYspedzS9szeo-142" value="(1,1)" style="text;html=1;align=center;verticalAlign=middle;resizable=0;points=[];autosize=1;strokeColor=none;fillColor=none;" vertex="1" parent="1">
          <mxGeometry x="716" y="718" width="50" height="30" as="geometry" />
        </mxCell>
        <mxCell id="Ad2AzPNfYspedzS9szeo-143" value="[1:N]" style="text;html=1;align=center;verticalAlign=middle;resizable=0;points=[];autosize=1;strokeColor=none;fillColor=none;" vertex="1" parent="1">
          <mxGeometry x="846" y="688" width="50" height="30" as="geometry" />
        </mxCell>
        <mxCell id="Ad2AzPNfYspedzS9szeo-144" value="(0,n)" style="text;html=1;align=center;verticalAlign=middle;resizable=0;points=[];autosize=1;strokeColor=none;fillColor=none;" vertex="1" parent="1">
          <mxGeometry x="857" y="533" width="50" height="30" as="geometry" />
        </mxCell>
        <mxCell id="Ad2AzPNfYspedzS9szeo-145" value="(1,1)" style="text;html=1;align=center;verticalAlign=middle;resizable=0;points=[];autosize=1;strokeColor=none;fillColor=none;" vertex="1" parent="1">
          <mxGeometry x="666" y="537" width="50" height="30" as="geometry" />
        </mxCell>
        <mxCell id="Ad2AzPNfYspedzS9szeo-146" value="[1:N]" style="text;html=1;align=center;verticalAlign=middle;resizable=0;points=[];autosize=1;strokeColor=none;fillColor=none;" vertex="1" parent="1">
          <mxGeometry x="761" y="506" width="50" height="30" as="geometry" />
        </mxCell>
        <mxCell id="Ad2AzPNfYspedzS9szeo-147" value="(0,n)" style="text;html=1;align=center;verticalAlign=middle;resizable=0;points=[];autosize=1;strokeColor=none;fillColor=none;" vertex="1" parent="1">
          <mxGeometry x="336" y="366" width="50" height="30" as="geometry" />
        </mxCell>
        <mxCell id="Ad2AzPNfYspedzS9szeo-148" value="(1,1)" style="text;html=1;align=center;verticalAlign=middle;resizable=0;points=[];autosize=1;strokeColor=none;fillColor=none;" vertex="1" parent="1">
          <mxGeometry x="578" y="508" width="50" height="30" as="geometry" />
        </mxCell>
        <mxCell id="Ad2AzPNfYspedzS9szeo-149" value="[N:1]" style="text;html=1;align=center;verticalAlign=middle;resizable=0;points=[];autosize=1;strokeColor=none;fillColor=none;" vertex="1" parent="1">
          <mxGeometry x="596" y="338" width="50" height="30" as="geometry" />
        </mxCell>
        <mxCell id="Ad2AzPNfYspedzS9szeo-150" value="(0,n)" style="text;html=1;align=center;verticalAlign=middle;resizable=0;points=[];autosize=1;strokeColor=none;fillColor=none;" vertex="1" parent="1">
          <mxGeometry x="946" y="516" width="50" height="30" as="geometry" />
        </mxCell>
        <mxCell id="Ad2AzPNfYspedzS9szeo-151" value="(1,1)" style="text;html=1;align=center;verticalAlign=middle;resizable=0;points=[];autosize=1;strokeColor=none;fillColor=none;" vertex="1" parent="1">
          <mxGeometry x="872" y="180" width="50" height="30" as="geometry" />
        </mxCell>
        <mxCell id="Ad2AzPNfYspedzS9szeo-152" value="[1:N]" style="text;html=1;align=center;verticalAlign=middle;resizable=0;points=[];autosize=1;strokeColor=none;fillColor=none;" vertex="1" parent="1">
          <mxGeometry x="923" y="327" width="50" height="30" as="geometry" />
        </mxCell>
        <mxCell id="Ad2AzPNfYspedzS9szeo-153" value="(1,n)" style="text;html=1;align=center;verticalAlign=middle;resizable=0;points=[];autosize=1;strokeColor=none;fillColor=none;" vertex="1" parent="1">
          <mxGeometry x="793" y="94" width="50" height="30" as="geometry" />
        </mxCell>
        <mxCell id="Ad2AzPNfYspedzS9szeo-154" value="(0,n)" style="text;html=1;align=center;verticalAlign=middle;resizable=0;points=[];autosize=1;strokeColor=none;fillColor=none;" vertex="1" parent="1">
          <mxGeometry x="266" y="68" width="50" height="30" as="geometry" />
        </mxCell>
        <mxCell id="Ad2AzPNfYspedzS9szeo-155" value="[N:M]" style="text;html=1;align=center;verticalAlign=middle;resizable=0;points=[];autosize=1;strokeColor=none;fillColor=none;" vertex="1" parent="1">
          <mxGeometry x="485" y="37" width="50" height="30" as="geometry" />
        </mxCell>
        <mxCell id="Ad2AzPNfYspedzS9szeo-156" value="(0,n)" style="text;html=1;align=center;verticalAlign=middle;resizable=0;points=[];autosize=1;strokeColor=none;fillColor=none;" vertex="1" parent="1">
          <mxGeometry x="287" y="343" width="50" height="30" as="geometry" />
        </mxCell>
        <mxCell id="Ad2AzPNfYspedzS9szeo-157" value="[N:M]" style="text;html=1;align=center;verticalAlign=middle;resizable=0;points=[];autosize=1;strokeColor=none;fillColor=none;" vertex="1" parent="1">
          <mxGeometry x="526" y="251" width="50" height="30" as="geometry" />
        </mxCell>
        <mxCell id="Ad2AzPNfYspedzS9szeo-158" value="(0,n)" style="text;html=1;align=center;verticalAlign=middle;resizable=0;points=[];autosize=1;strokeColor=none;fillColor=none;" vertex="1" parent="1">
          <mxGeometry x="128" y="112" width="50" height="30" as="geometry" />
        </mxCell>
        <mxCell id="Ad2AzPNfYspedzS9szeo-159" value="(1,1)" style="text;html=1;align=center;verticalAlign=middle;resizable=0;points=[];autosize=1;strokeColor=none;fillColor=none;" vertex="1" parent="1">
          <mxGeometry x="178" y="624" width="50" height="30" as="geometry" />
        </mxCell>
        <mxCell id="Ad2AzPNfYspedzS9szeo-160" value="&lt;div&gt;nombre&lt;/div&gt;" style="ellipse;whiteSpace=wrap;html=1;align=center;" vertex="1" parent="1">
          <mxGeometry x="60" y="573" width="100" height="40" as="geometry" />
        </mxCell>
        <mxCell id="Ad2AzPNfYspedzS9szeo-161" value="" style="endArrow=none;html=1;rounded=0;exitX=1;exitY=1;exitDx=0;exitDy=0;entryX=0.25;entryY=0;entryDx=0;entryDy=0;" edge="1" parent="1" source="Ad2AzPNfYspedzS9szeo-160" target="Ad2AzPNfYspedzS9szeo-2">
          <mxGeometry relative="1" as="geometry">
            <mxPoint x="470" y="700" as="sourcePoint" />
            <mxPoint x="630" y="700" as="targetPoint" />
          </mxGeometry>
        </mxCell>
        <mxCell id="Ad2AzPNfYspedzS9szeo-162" value="[1:N]" style="text;html=1;align=center;verticalAlign=middle;resizable=0;points=[];autosize=1;strokeColor=none;fillColor=none;" vertex="1" parent="1">
          <mxGeometry x="20" y="455" width="50" height="30" as="geometry" />
        </mxCell>
        <mxCell id="Ad2AzPNfYspedzS9szeo-163" value="[1:N]" style="text;html=1;align=center;verticalAlign=middle;resizable=0;points=[];autosize=1;strokeColor=none;fillColor=none;" vertex="1" parent="1">
          <mxGeometry x="269" y="160" width="50" height="30" as="geometry" />
        </mxCell>
        <mxCell id="Ad2AzPNfYspedzS9szeo-164" value="(1,1)" style="text;html=1;align=center;verticalAlign=middle;resizable=0;points=[];autosize=1;strokeColor=none;fillColor=none;" vertex="1" parent="1">
          <mxGeometry x="233" y="115" width="50" height="30" as="geometry" />
        </mxCell>
        <mxCell id="Ad2AzPNfYspedzS9szeo-165" value="&lt;div&gt;apellido1&lt;/div&gt;" style="ellipse;whiteSpace=wrap;html=1;align=center;" vertex="1" parent="1">
          <mxGeometry x="830" y="10" width="100" height="40" as="geometry" />
        </mxCell>
        <mxCell id="Ad2AzPNfYspedzS9szeo-166" value="" style="endArrow=none;html=1;rounded=0;exitX=0.5;exitY=1;exitDx=0;exitDy=0;entryX=0.5;entryY=0;entryDx=0;entryDy=0;" edge="1" parent="1" source="Ad2AzPNfYspedzS9szeo-165" target="Ad2AzPNfYspedzS9szeo-21">
          <mxGeometry relative="1" as="geometry">
            <mxPoint x="1130" y="180" as="sourcePoint" />
            <mxPoint x="1290" y="180" as="targetPoint" />
          </mxGeometry>
        </mxCell>
      </root>
    </mxGraphModel>
  </diagram>
</mxfile>
